<svg width="934" height="934" viewBox="0 0 934 934" fill="none" xmlns="http://www.w3.org/2000/svg">
<path d="M359.839 690.245L291.241 662.297C291.241 662.297 288.7 662.297 288.7 659.757L260.753 593.699C260.753 593.699 260.752 591.158 258.212 591.158C255.671 591.158 253.13 591.158 253.13 593.699L227.724 662.297C227.724 662.297 227.724 664.838 225.183 664.838L156.585 692.786C156.585 692.786 154.044 692.786 154.044 695.326C154.044 697.867 154.044 700.408 156.585 700.408L225.183 728.355C225.183 728.355 227.724 728.355 227.724 730.896L255.671 796.954C255.671 796.954 255.671 799.494 258.212 799.494C260.752 799.494 263.293 799.494 263.293 796.954L291.241 725.814C291.241 725.814 291.241 723.274 293.781 723.274L362.38 695.326C362.38 695.326 364.92 695.326 364.92 692.786C362.38 692.786 362.38 692.786 359.839 690.245Z" fill="#00BABC"/>
<path d="M161.666 342.172L189.613 443.799C189.613 446.34 194.695 448.88 197.235 448.88C199.776 448.88 199.776 446.34 202.317 443.799L230.264 342.172V339.631L331.892 311.683C334.432 311.683 336.973 306.602 336.973 304.061C336.973 301.521 334.432 301.521 331.892 298.98L230.264 271.033L227.724 268.492L199.776 166.865C199.776 164.324 197.235 161.783 192.154 161.783C192.154 161.783 189.613 164.324 189.613 166.865L161.666 268.492L156.585 271.033L54.9573 298.98C52.4166 301.521 49.876 304.061 52.4166 306.602C52.4166 309.143 54.9573 311.683 57.498 311.683L159.125 339.631L161.666 342.172Z" fill="#00BABC"/>
<path d="M159.125 530.182C159.125 553.048 179.451 573.374 202.317 573.374C225.183 573.374 245.508 553.048 245.508 530.182C245.508 507.316 225.183 486.99 202.317 486.99C179.451 486.99 159.125 507.316 159.125 530.182Z" fill="#00BABC"/>
<path d="M476.71 286.277C476.71 263.411 458.926 243.085 436.059 240.544C413.193 238.004 392.868 258.329 390.327 281.195C390.327 304.061 408.112 324.387 430.978 326.928C453.844 329.468 476.71 309.143 476.71 286.277Z" fill="#00BABC"/>
<path d="M291.241 194.812C321.729 189.731 354.758 184.649 387.787 184.649C433.519 182.109 476.71 182.109 519.902 184.649L583.419 301.521L591.041 304.061C608.826 306.602 629.151 311.683 646.936 314.224C649.477 337.09 667.261 354.875 692.668 357.416C718.075 357.416 740.941 339.631 743.482 311.683C743.482 286.277 725.697 263.411 697.75 260.87C679.965 260.87 667.261 268.492 657.099 281.195C639.314 276.114 624.07 273.573 606.285 271.033L563.094 187.19C621.529 194.812 677.424 204.975 733.319 222.76C735.86 245.626 753.645 265.951 779.051 268.492C804.458 268.492 827.324 250.707 829.865 222.76C829.865 197.353 812.08 174.487 784.133 171.946C768.889 171.946 753.645 179.568 743.482 189.731C626.611 154.161 507.199 141.458 387.787 149.08C352.217 151.621 319.188 154.161 286.159 161.783C278.537 161.783 270.915 171.946 273.456 179.568C273.456 189.731 283.619 194.812 291.241 194.812Z" fill="#00BABC"/>
<path d="M265.834 428.555C265.834 436.177 273.456 441.258 281.078 441.258C281.078 441.258 283.619 441.258 286.159 441.258C349.676 426.014 415.734 420.933 481.792 420.933C486.873 436.177 502.117 448.88 519.902 448.88C542.768 448.88 563.093 431.095 565.634 408.229C565.634 385.363 547.849 365.038 524.983 362.497C507.199 362.497 491.954 372.66 484.332 387.904C415.734 385.363 347.136 392.985 281.078 408.229C268.375 410.77 263.293 418.392 265.834 428.555Z" fill="#00BABC"/>
<path d="M796.836 558.13C781.592 558.13 771.429 565.752 761.267 575.914C702.831 553.048 644.395 537.804 583.419 530.182L672.343 464.124C700.29 469.206 725.697 479.368 751.104 486.99C751.104 512.397 773.97 532.723 799.377 532.723C824.784 532.723 845.109 509.857 845.109 484.45C845.109 459.043 822.243 438.718 796.836 438.718C784.133 438.718 771.429 446.34 761.267 453.962C730.778 443.799 700.29 433.636 669.802 428.555L662.18 426.014L532.605 525.101C509.739 525.101 484.332 525.101 461.466 525.101C430.978 527.641 403.031 530.182 372.542 537.804C362.38 540.345 357.298 547.967 359.839 558.13C362.38 568.292 370.002 573.374 380.165 570.833C408.112 565.752 436.059 560.67 464.007 560.67C486.873 558.13 512.28 558.13 535.146 560.67H540.227C611.366 565.752 682.506 580.996 751.104 608.943C751.104 634.35 773.97 654.675 799.377 654.675C824.784 654.675 845.109 631.809 845.109 606.402C845.109 578.455 824.784 558.13 796.836 558.13Z" fill="#00BABC"/>
<path d="M690.128 675.001C677.424 675.001 664.721 682.623 657.099 692.786C598.663 675.001 535.146 667.379 474.17 672.46C451.304 675.001 425.897 677.542 403.031 682.623C392.868 685.164 387.787 692.786 390.327 702.948C392.868 713.111 400.49 718.192 410.653 715.652C433.519 710.57 453.844 708.03 476.71 705.489C535.146 700.408 593.582 708.03 649.477 723.274C652.017 746.14 669.802 763.925 695.209 763.925C720.616 763.925 738.4 743.599 738.4 718.192C733.319 692.786 712.994 675.001 690.128 675.001Z" fill="#00BABC"/>
</svg>
